<?xml version="1.0" encoding="UTF-8" standalone="no"?> <svg xmlns="http://www.w3.org/2000/svg" viewBox="0 0 64 64"><g id="Books"><path d="M61,56v4H17a14,14,0,0,1,0-28H61v4H17a10,10,0,0,0,0,20H61Z" style="fill:#9cdd05"/><path d="M59,36V56H17a10,10,0,0,1,0-20Z" style="fill:#fee9ab"/><path d="M47,4a14,14,0,1,1,0,28H3V28H47A10,10,0,0,0,47,8H3V4Z" style="fill:#ff7956"/><path d="M54.07,10.93A10,10,0,0,1,47,28H5V8H47A9.969,9.969,0,0,1,54.07,10.93Z" style="fill:#fee9ab"/><rect x="10" y="45" width="46" height="2"/><rect x="14" y="41" width="38" height="2"/><rect x="14" y="49" width="38" height="2"/><path d="M61,31H54.452A14.989,14.989,0,0,0,47,3H3A1,1,0,0,0,2,4V8A1,1,0,0,0,3,9H4V27H3a1,1,0,0,0-1,1v4a1,1,0,0,0,1,1H9.548A14.989,14.989,0,0,0,17,61H61a1,1,0,0,0,1-1V56a1,1,0,0,0-1-1H60V37h1a1,1,0,0,0,1-1V32A1,1,0,0,0,61,31ZM6,9H47a9,9,0,0,1,0,18H6ZM4,31V29H47A11,11,0,0,0,47,7H4V5H47a13,13,0,0,1,0,26H4ZM58,55H17a9,9,0,0,1,0-18H58Zm2-20H17a11,11,0,0,0,0,22H60v2H17a13,13,0,0,1,0-26H60Z"/><rect x="8" y="17" width="46" height="2"/><rect x="12" y="13" width="38" height="2"/><rect x="12" y="21" width="38" height="2"/></g></svg>